<?xml version="1.0" standalone="no"?>
<!DOCTYPE svg PUBLIC "-//W3C//DTD SVG 20010904//EN"
 "http://www.w3.org/TR/2001/REC-SVG-20010904/DTD/svg10.dtd">
<svg version="1.0" xmlns="http://www.w3.org/2000/svg"
 width="1300.000000pt" height="1300.000000pt" viewBox="0 0 1300.000000 1300.000000"
 preserveAspectRatio="xMidYMid meet">
<metadata>
Created by potrace 1.14, written by Peter Selinger 2001-2017
</metadata>
<g transform="translate(0.000000,1300.000000) scale(0.100000,-0.100000)"
fill="#000000" stroke="none">
<path d="M6165 11238 c-3 -13 -32 -167 -65 -343 -33 -176 -63 -338 -67 -359
l-8 -40 -290 -58 c-159 -31 -299 -58 -310 -58 -15 0 -48 43 -129 168 -103 157
-293 445 -307 466 -7 9 -45 -4 -294 -108 -88 -37 -195 -81 -237 -99 -60 -25
-78 -36 -78 -52 0 -11 34 -182 75 -380 58 -282 72 -362 62 -371 -7 -7 -124
-87 -261 -178 -217 -144 -252 -164 -265 -152 -9 7 -88 62 -176 122 -88 59
-225 152 -304 206 l-145 98 -115 -115 -115 -115 359 -363 360 -362 -362 360
-363 359 -115 -115 -115 -115 88 -130 c48 -71 141 -208 206 -304 65 -96 125
-182 132 -191 12 -13 -9 -49 -152 -265 -92 -137 -171 -254 -178 -261 -9 -10
-91 4 -375 62 -200 41 -372 75 -381 75 -12 0 -29 -30 -58 -102 -22 -57 -68
-168 -102 -248 -88 -210 -103 -252 -94 -259 16 -11 292 -193 466 -307 144 -93
168 -113 167 -134 0 -14 -26 -153 -57 -309 l-58 -284 -89 -18 c-50 -10 -211
-41 -360 -69 -148 -27 -280 -52 -293 -55 l-22 -5 0 -330 0 -330 22 -4 c13 -3
95 -19 183 -35 88 -17 241 -46 340 -65 l180 -35 532 532 c491 490 532 534 539
571 12 75 92 340 137 457 49 127 158 351 229 469 122 206 269 393 462 586 410
409 909 683 1481 812 396 90 848 94 1260 11 596 -119 1173 -439 1589 -882 63
-67 132 -144 153 -172 21 -27 43 -54 49 -60 13 -11 118 -161 149 -212 11 -18
39 -63 62 -101 131 -215 278 -571 330 -801 l18 -81 357 -357 358 -358 232 230
233 230 -230 -232 -230 -233 190 -192 190 -193 -193 190 -192 190 -328 -325
-327 -325 325 328 325 327 -352 352 -351 351 14 -74 c37 -196 48 -316 48 -564
1 -283 -20 -468 -78 -710 -1 -5 -6 -26 -10 -45 -30 -140 -138 -425 -232 -611
-187 -375 -414 -660 -779 -978 -131 -114 -370 -268 -570 -369 -325 -162 -613
-248 -1015 -303 -141 -20 -564 -17 -715 4 -375 53 -669 143 -986 302 -171 86
-395 225 -494 308 -16 14 -64 53 -105 88 -110 92 -304 289 -396 404 -150 187
-246 338 -354 555 -84 167 -117 249 -171 415 -23 72 -50 139 -58 149 -12 14
-12 17 -2 11 11 -6 13 -3 7 16 -18 62 -57 266 -72 379 -13 91 -18 194 -18 380
0 240 7 343 40 540 5 31 -49 -20 -514 -484 -398 -397 -518 -522 -508 -530 11
-10 128 -570 126 -606 -1 -8 -40 -40 -88 -72 -362 -235 -552 -362 -552 -368 0
-7 143 -357 204 -500 13 -30 27 -65 31 -77 3 -13 14 -23 25 -23 10 0 184 34
385 76 201 42 367 74 369 73 1 -2 77 -117 169 -256 92 -138 167 -257 167 -263
0 -6 -24 -46 -53 -88 -59 -85 -360 -531 -370 -548 -3 -5 99 -115 226 -242
l233 -233 59 42 c258 181 580 390 594 386 9 -2 121 -74 248 -160 128 -85 239
-159 248 -164 14 -8 8 -46 -50 -329 -81 -392 -85 -412 -85 -434 0 -11 12 -22
33 -29 17 -7 153 -62 301 -123 246 -102 270 -111 280 -95 6 10 75 116 154 235
78 119 168 256 200 305 47 72 61 87 82 87 14 -1 153 -27 309 -58 l285 -57 18
-100 c31 -164 119 -618 125 -642 l5 -23 328 0 329 0 10 53 c70 355 102 534 98
553 -2 13 -1 21 3 19 4 -3 14 28 21 67 l14 72 303 61 c166 33 306 58 311 55 7
-4 84 -119 329 -495 47 -71 88 -134 92 -138 4 -5 81 21 171 58 90 37 216 89
279 115 63 26 125 51 138 54 12 4 22 15 22 26 0 10 -15 92 -34 182 -75 356
-118 570 -114 572 38 30 496 330 508 333 17 4 122 -63 501 -324 76 -51 142
-93 149 -93 6 0 62 50 123 110 l112 110 -335 338 -335 337 337 -335 338 -335
110 112 c60 61 110 116 110 122 0 6 -29 53 -63 104 -248 361 -358 531 -354
547 3 12 301 467 333 508 1 2 58 -8 126 -22 67 -14 233 -48 368 -75 135 -28
252 -51 260 -51 10 0 34 46 69 133 30 72 86 208 124 300 39 95 66 172 61 176
-8 7 -166 111 -496 326 -117 76 -138 94 -137 115 0 14 26 153 57 310 51 251
60 285 77 288 11 2 27 6 35 9 8 3 30 7 48 9 26 2 241 43 635 120 l27 6 0 328
0 328 -22 5 c-21 5 -605 117 -703 135 l-39 8 -58 284 c-31 157 -57 296 -58
310 0 19 11 32 43 53 467 303 596 393 591 412 -4 11 -55 137 -114 280 -59 143
-111 270 -114 283 -4 12 -15 22 -25 22 -17 0 -290 -54 -605 -120 -133 -28
-150 -30 -158 -16 -5 9 -83 126 -173 260 l-164 243 141 209 c77 115 174 257
214 316 41 58 74 112 74 120 0 7 -103 116 -228 241 l-228 228 -34 -24 c-19
-13 -114 -76 -210 -142 -96 -65 -223 -151 -282 -192 -58 -40 -112 -73 -119
-73 -8 0 -445 283 -517 336 -3 2 93 479 133 666 23 103 25 99 -68 137 -45 18
-111 46 -147 61 -267 113 -372 152 -379 144 -8 -9 -239 -359 -356 -541 -42
-65 -66 -93 -80 -93 -27 0 -588 112 -597 119 -3 3 -34 155 -68 336 -34 182
-66 351 -72 378 l-10 47 -329 0 -329 0 -5 -22z m360 -1131 c19 18 19 17 2 -3
-15 -18 -15 -22 -2 -37 14 -16 14 -16 -2 -2 -15 13 -19 13 -37 -2 -20 -17 -21
-17 -3 2 17 19 11 26 -200 240 l-218 220 220 -218 c214 -211 221 -217 240
-200z m310 -347 c154 -154 278 -280 275 -280 -3 0 -131 126 -285 280 -154 154
-278 280 -275 280 3 0 131 -126 285 -280z m3045 87 c0 -1 -156 -157 -347 -347
l-348 -345 345 348 c321 322 350 351 350 344z m-370 -4070 c0 -2 -17 -19 -37
-38 l-38 -34 34 38 c33 34 41 42 41 34z m-5670 -1970 c0 -1 -156 -157 -347
-347 l-348 -345 345 348 c321 322 350 351 350 344z m3440 -280 c0 -2 -12 -14
-27 -28 l-28 -24 24 28 c23 25 31 32 31 24z m-80 -80 c0 -2 -12 -14 -27 -28
l-28 -24 24 28 c23 25 31 32 31 24z m-80 -80 c0 -2 -12 -14 -27 -28 l-28 -24
24 28 c23 25 31 32 31 24z m-80 -80 c0 -2 -12 -14 -27 -28 l-28 -24 24 28 c23
25 31 32 31 24z m-80 -80 c0 -2 -12 -14 -27 -28 l-28 -24 24 28 c23 25 31 32
31 24z m-80 -80 c0 -2 -12 -14 -27 -28 l-28 -24 24 28 c23 25 31 32 31 24z
m-80 -80 c0 -2 -12 -14 -27 -28 l-28 -24 24 28 c23 25 31 32 31 24z m-80 -80
c0 -2 -12 -14 -27 -28 l-28 -24 24 28 c23 25 31 32 31 24z m-80 -80 c0 -2 -12
-14 -27 -28 l-28 -24 24 28 c23 25 31 32 31 24z m-95 -89 c19 17 19 16 2 -4
-13 -16 -14 -23 -4 -34 10 -12 9 -12 -4 -2 -9 6 -19 10 -22 7 -4 -3 -5 -2 -2
2 3 3 -5 18 -17 32 l-23 26 25 -22 c25 -22 27 -22 45 -5z m-55 -61 c0 -2 -15
-16 -32 -33 l-33 -29 29 33 c28 30 36 37 36 29z m-90 -90 c0 -2 -12 -14 -27
-28 l-28 -24 24 28 c23 25 31 32 31 24z m-80 -80 c0 -2 -12 -14 -27 -28 l-28
-24 24 28 c23 25 31 32 31 24z m-80 -80 c0 -2 -12 -14 -27 -28 l-28 -24 24 28
c23 25 31 32 31 24z m-80 -80 c0 -2 -12 -14 -27 -28 l-28 -24 24 28 c23 25 31
32 31 24z"/>
<path d="M5802 8366 l-362 -121 -513 -513 -512 -512 252 -252 251 -251 222
221 c121 122 223 222 225 222 8 0 775 -769 775 -777 0 -5 -127 -135 -283 -291
l-283 -283 -80 22 c-122 35 -272 31 -387 -9 -162 -55 -262 -132 -352 -267 -31
-46 -67 -116 -82 -156 -24 -66 -27 -89 -27 -209 -1 -143 10 -196 59 -304 40
-88 47 -87 90 7 21 45 64 138 97 205 32 68 58 128 58 133 0 5 1 9 3 9 1 0 76
7 167 15 264 24 234 32 312 -82 37 -54 87 -127 113 -163 l46 -66 -101 -214
c-55 -117 -98 -215 -95 -218 2 -3 28 0 57 6 234 47 429 221 504 448 26 80 29
102 29 219 -1 108 -4 140 -22 190 l-22 60 288 289 289 289 664 -664 c365 -365
674 -673 686 -683 l23 -20 184 184 c102 102 185 189 185 195 0 5 -306 316
-680 690 l-680 680 374 374 374 374 64 -21 c194 -63 430 -20 603 110 124 94
206 221 247 380 26 105 22 262 -10 351 -26 72 -75 177 -83 177 -6 0 -102 -199
-157 -325 -19 -44 -40 -86 -47 -94 -9 -9 -74 -19 -202 -30 -103 -10 -192 -16
-198 -14 -8 3 -203 275 -228 319 -3 6 39 107 93 225 75 161 96 215 85 217 -25
6 -167 -38 -225 -69 -78 -41 -162 -110 -211 -171 -55 -69 -124 -216 -140 -296
-16 -84 -7 -250 18 -328 l20 -62 -373 -373 -374 -374 -391 391 -391 391 99 99
98 100 119 359 c65 198 121 366 123 373 3 6 -1 11 -8 11 -8 -1 -177 -56 -377
-123z m-312 -831 c13 -14 21 -25 18 -25 -2 0 -15 11 -28 25 -13 14 -21 25 -18
25 2 0 15 -11 28 -25z m80 -80 c13 -14 21 -25 18 -25 -2 0 -15 11 -28 25 -13
14 -21 25 -18 25 2 0 15 -11 28 -25z m1920 22 c0 -2 -12 -14 -27 -28 l-28 -24
24 28 c23 25 31 32 31 24z m-1840 -102 c13 -14 21 -25 18 -25 -2 0 -15 11 -28
25 -13 14 -21 25 -18 25 2 0 15 -11 28 -25z m1760 22 c0 -2 -12 -14 -27 -28
l-28 -24 24 28 c23 25 31 32 31 24z m-1680 -102 c13 -14 21 -25 18 -25 -2 0
-15 11 -28 25 -13 14 -21 25 -18 25 2 0 15 -11 28 -25z m1600 22 c0 -2 -12
-14 -27 -28 l-28 -24 24 28 c23 25 31 32 31 24z m-1520 -102 c13 -14 21 -25
18 -25 -2 0 -15 11 -28 25 -13 14 -21 25 -18 25 2 0 15 -11 28 -25z m1440 22
c0 -2 -12 -14 -27 -28 l-28 -24 24 28 c23 25 31 32 31 24z m-1360 -102 c13
-14 21 -25 18 -25 -2 0 -15 11 -28 25 -13 14 -21 25 -18 25 2 0 15 -11 28 -25z
m1280 22 c0 -2 -12 -14 -27 -28 l-28 -24 24 28 c23 25 31 32 31 24z m-1200
-102 c13 -14 21 -25 18 -25 -2 0 -15 11 -28 25 -13 14 -21 25 -18 25 2 0 15
-11 28 -25z m1120 22 c0 -2 -12 -14 -27 -28 l-28 -24 24 28 c23 25 31 32 31
24z m-1040 -102 c13 -14 21 -25 18 -25 -2 0 -15 11 -28 25 -13 14 -21 25 -18
25 2 0 15 -11 28 -25z m960 22 c0 -2 -12 -14 -27 -28 l-28 -24 24 28 c23 25
31 32 31 24z m-880 -102 c13 -14 21 -25 18 -25 -2 0 -15 11 -28 25 -13 14 -21
25 -18 25 2 0 15 -11 28 -25z m800 22 c0 -2 -12 -14 -27 -28 l-28 -24 24 28
c23 25 31 32 31 24z m-720 -102 c13 -14 21 -25 18 -25 -2 0 -15 11 -28 25 -13
14 -21 25 -18 25 2 0 15 -11 28 -25z m640 22 c0 -2 -12 -14 -27 -28 l-28 -24
24 28 c23 25 31 32 31 24z m-560 -102 c13 -14 21 -25 18 -25 -2 0 -15 11 -28
25 -13 14 -21 25 -18 25 2 0 15 -11 28 -25z m480 22 c0 -2 -12 -14 -27 -28
l-28 -24 24 28 c23 25 31 32 31 24z m-400 -102 c13 -14 21 -25 18 -25 -2 0
-15 11 -28 25 -13 14 -21 25 -18 25 2 0 15 -11 28 -25z m320 22 c0 -2 -12 -14
-27 -28 l-28 -24 24 28 c23 25 31 32 31 24z m-240 -102 c13 -14 21 -25 18 -25
-2 0 -15 11 -28 25 -13 14 -21 25 -18 25 2 0 15 -11 28 -25z m160 22 c0 -2
-12 -14 -27 -28 l-28 -24 24 28 c23 25 31 32 31 24z m-83 -84 c-4 -3 -1 -13 6
-22 10 -14 10 -14 -4 -4 -12 10 -18 10 -29 0 -8 -6 -6 -2 4 11 11 12 21 22 24
22 3 0 2 -3 -1 -7z m-77 -76 c0 -2 -12 -14 -27 -28 l-28 -24 24 28 c23 25 31
32 31 24z m160 -22 c13 -14 21 -25 18 -25 -2 0 -15 11 -28 25 -13 14 -21 25
-18 25 2 0 15 -11 28 -25z m-240 -58 c0 -2 -12 -14 -27 -28 l-28 -24 24 28
c23 25 31 32 31 24z m320 -22 c13 -14 21 -25 18 -25 -2 0 -15 11 -28 25 -13
14 -21 25 -18 25 2 0 15 -11 28 -25z m-400 -58 c0 -2 -12 -14 -27 -28 l-28
-24 24 28 c23 25 31 32 31 24z m480 -22 c13 -14 21 -25 18 -25 -2 0 -15 11
-28 25 -13 14 -21 25 -18 25 2 0 15 -11 28 -25z m-560 -58 c0 -2 -12 -14 -27
-28 l-28 -24 24 28 c23 25 31 32 31 24z m640 -22 c13 -14 21 -25 18 -25 -2 0
-15 11 -28 25 -13 14 -21 25 -18 25 2 0 15 -11 28 -25z m-720 -58 c0 -2 -12
-14 -27 -28 l-28 -24 24 28 c23 25 31 32 31 24z m800 -22 c13 -14 21 -25 18
-25 -2 0 -15 11 -28 25 -13 14 -21 25 -18 25 2 0 15 -11 28 -25z m-880 -58 c0
-2 -12 -14 -27 -28 l-28 -24 24 28 c23 25 31 32 31 24z m960 -22 c13 -14 21
-25 18 -25 -2 0 -15 11 -28 25 -13 14 -21 25 -18 25 2 0 15 -11 28 -25z
m-1040 -58 c0 -2 -12 -14 -27 -28 l-28 -24 24 28 c23 25 31 32 31 24z m1120
-22 c13 -14 21 -25 18 -25 -2 0 -15 11 -28 25 -13 14 -21 25 -18 25 2 0 15
-11 28 -25z m-1200 -58 c0 -2 -12 -14 -27 -28 l-28 -24 24 28 c23 25 31 32 31
24z m1280 -22 c13 -14 21 -25 18 -25 -2 0 -15 11 -28 25 -13 14 -21 25 -18 25
2 0 15 -11 28 -25z m-1360 -58 c0 -2 -12 -14 -27 -28 l-28 -24 24 28 c23 25
31 32 31 24z m1440 -22 c13 -14 21 -25 18 -25 -2 0 -15 11 -28 25 -13 14 -21
25 -18 25 2 0 15 -11 28 -25z m-1520 -58 c0 -2 -12 -14 -27 -28 l-28 -24 24
28 c23 25 31 32 31 24z m1600 -22 c13 -14 21 -25 18 -25 -2 0 -15 11 -28 25
-13 14 -21 25 -18 25 2 0 15 -11 28 -25z m-1680 -58 c0 -2 -12 -14 -27 -28
l-28 -24 24 28 c23 25 31 32 31 24z m1760 -22 c13 -14 21 -25 18 -25 -2 0 -15
11 -28 25 -13 14 -21 25 -18 25 2 0 15 -11 28 -25z m-1840 -58 c0 -2 -12 -14
-27 -28 l-28 -24 24 28 c23 25 31 32 31 24z m1920 -22 c13 -14 21 -25 18 -25
-2 0 -15 11 -28 25 -13 14 -21 25 -18 25 2 0 15 -11 28 -25z m-2000 -58 c0 -2
-12 -14 -27 -28 l-28 -24 24 28 c23 25 31 32 31 24z"/>
</g>
</svg>
